<svg xmlns="http://www.w3.org/2000/svg" viewBox="0 0 512 512"><defs></defs><circle fill="#662d91" cx="256" cy="256" r="256"/><path fill="#fd5618" d="M212.16,357.99v45.26A15.7481,15.7481,0,0,1,196.41,419H138.28a15.7481,15.7481,0,0,1-15.75-15.75V357.99a15.7481,15.7481,0,0,1,15.75-15.75h21.43a4.3391,4.3391,0,0,1-.13-1.09V209.85a4.8481,4.8481,0,0,1,4.85-4.85h5.3a4.8481,4.8481,0,0,1,4.85,4.85v131.3a4.3391,4.3391,0,0,1-.13,1.09h21.96A15.7481,15.7481,0,0,1,212.16,357.99Z"/><path fill="#fd5618" d="M388.71,357.99v45.26A15.7481,15.7481,0,0,1,372.96,419H315.23a15.7481,15.7481,0,0,1-15.75-15.75s.18-47.99.52-49.27c-.05-94.87-47.45-173.38-108.49-184.84H138.28a15.7483,15.7483,0,0,1-15.75-15.75V108.13a15.7545,15.7545,0,0,1,15.75-15.75h58.13a15.7545,15.7545,0,0,1,15.75,15.75S212.92,159,212,161c81,34,99.84,132.65,101.76,181.31.48-.05,59.2-.07,59.2-.07A15.7481,15.7481,0,0,1,388.71,357.99Z"/><path fill="#fd5618" d="M388.71,107.75v45.26a15.7481,15.7481,0,0,1-15.75,15.75h-21.1V294.15a4.8481,4.8481,0,0,1-4.85,4.85h-5.3a4.8481,4.8481,0,0,1-4.85-4.85V168.76H315.23a15.7481,15.7481,0,0,1-15.75-15.75V107.75A15.7481,15.7481,0,0,1,315.23,92h57.73A15.7481,15.7481,0,0,1,388.71,107.75Z"/></svg>