<svg width="512" height="512" xmlns="http://www.w3.org/2000/svg" xmlns:xlink="http://www.w3.org/1999/xlink"><defs><path id="a" d="M0 46V4h85v84H0z"/></defs><g transform="translate(0 6)" fill="none" fill-rule="evenodd"><path d="M374 455a85 85 0 110-169 85 85 0 010 169M206 261a53 53 0 110-106 53 53 0 010 106M378 96H237c-72 0-131 58-131 130v141c0 72 59 131 131 131h141c72 0 131-59 131-131V226c0-72-59-130-131-130" fill="#004880"/><mask id="b" fill="#fff"><use xlink:href="#a"/></mask><path d="M85 46a42 42 0 11-85 0 42 42 0 0185 0" fill="#004880" mask="url(#b)"/></g></svg>